<?xml version="1.0" encoding="utf-8"?>
<!-- Generator: Adobe Illustrator 27.9.0, SVG Export Plug-In . SVG Version: 6.00 Build 0)  -->
<svg version="1.1" id="Layer_1" xmlns="http://www.w3.org/2000/svg" xmlns:xlink="http://www.w3.org/1999/xlink" x="0px" y="0px"
	 viewBox="0 0 325.0717163 153.1064758" style="enable-background:new 0 0 325.0717163 153.1064758;" xml:space="preserve">
<style type="text/css">
	.st0{opacity:0.12;}
	.st1{fill:#222222;}
	.st2{fill:#EDB162;}
</style>
<g id="Arrow_00000080193501490584175630000012433087515276350087_" class="st0">
	<polygon class="st1" points="42.2519302,0 0,0 162.5358582,153.1064758 325.0717163,0 282.8197937,0 162.5358582,113.3057404 	"/>
	<path class="st1" d="M213.0772858,21.293066l-15.8481903,14.9287968c1.9996643,2.342617,4.9720764,3.829792,8.2935333,3.829792
		c6.0211639,0,10.902298-4.8811111,10.902298-10.902277C216.4249268,26.0620632,215.1395569,23.2766342,213.0772858,21.293066z"/>
	<path class="st1" d="M112.1156616,21.293066l15.8481903,14.9287968c-1.999649,2.342617-4.9720688,3.829792-8.2935257,3.829792
		c-6.0211639,0-10.9023056-4.8811111-10.9023056-10.902277C108.7680206,26.0620632,110.0533981,23.2766342,112.1156616,21.293066z"
		/>
	<polygon class="st2" points="189.8927612,43.7826805 162.8561859,24.417551 135.3433838,44.1237831 162.8561859,94.8521118 	"/>
</g>
</svg>
