<?xml version="1.0" encoding="utf-8"?>
<!-- Generator: Adobe Illustrator 27.9.0, SVG Export Plug-In . SVG Version: 6.00 Build 0)  -->
<svg version="1.1" id="Layer_1" xmlns="http://www.w3.org/2000/svg" xmlns:xlink="http://www.w3.org/1999/xlink" x="0px" y="0px"
	 viewBox="0 0 934.9882202 1408.3776855" style="enable-background:new 0 0 934.9882202 1408.3776855;" xml:space="preserve">
<style type="text/css">
	.st0{opacity:0.05;}
	.st1{fill:#EDB162;}
	.st2{fill:#1A1A1A;}
</style>
<g id="Hero_Logo_Gradient_00000062885006624065070900000012108116038141634238_" class="st0">
	<polygon class="st1" points="710.6623535,299.2394104 934.9882202,299.2394104 692.0568848,528.0774536 467.7305908,528.0774536 	
		"/>
	<polygon class="st2" points="0.4729654,1179.5395508 692.0568848,528.0774536 934.9882202,528.0774536 0.4729654,1408.3776855 
		0,1407.9324951 0,1179.0942383 	"/>
	<path class="st2" d="M199.2481079,736.338501l91.1204529-85.8345947
		c11.8571777,11.4047241,19.2476501,27.4197998,19.2476501,45.1706543c0,34.6192627-28.0647888,62.6835938-62.6838074,62.6835938
		C227.8356018,758.3581543,210.7452393,749.8076172,199.2481079,736.338501z"/>
	<polygon class="st2" points="934.9882202,0 277.0762024,619.7438354 185.8448334,705.6825562 54.1423111,456.9095764 
		692.0568848,0 	"/>
	<polygon class="st2" points="0.4729654,355.5336304 54.1423111,456.9095764 0.4729654,495.3505554 0,495.0120544 0,356.4051514 	
		"/>
	<polygon class="st1" points="156.8186188,781.7713013 0,1070.9144287 0,669.4490356 	"/>
</g>
</svg>
