<?xml version="1.0" encoding="utf-8"?>
<!-- Generator: Adobe Illustrator 27.7.0, SVG Export Plug-In . SVG Version: 6.00 Build 0)  -->
<svg version="1.1" id="Layer_1" xmlns="http://www.w3.org/2000/svg" xmlns:xlink="http://www.w3.org/1999/xlink" x="0px" y="0px"
	 viewBox="0 0 137.7758789 137.4469147" style="enable-background:new 0 0 137.7758789 137.4469147;" xml:space="preserve">
<style type="text/css">
	.st0{fill-rule:evenodd;clip-rule:evenodd;fill:#edb162;}
</style>
<g id="Instagram_00000060742302477967227920000010106996344673562249_">
	<g id="XMLID_00000090255738272422483800000007949539950827945603_">
		<path id="XMLID_00000013885052533633330820000010136942944574146211_" class="st0" d="M37.1567841,0h63.4623489
			c20.3868484,0,37.1567459,16.7698402,37.1567459,37.1566887v63.1335411c0,20.3868942-16.7698975,37.1566849-37.1567459,37.1566849
			H37.1567841C16.7699432,137.4469147,0,120.677124,0,100.2902298V37.1566887C0,16.7698402,16.7699432,0,37.1567841,0L37.1567841,0z
			 M105.8802643,24.0039558L105.8802643,24.0039558c4.2746887,0,7.8917923,3.6169624,7.8917923,7.8916035l0,0
			c0,4.2747364-3.6171036,7.8916988-7.8917923,7.8916988l0,0c-4.6035004,0-7.8916855-3.6169624-7.8916855-7.8916988l0,0
			C97.9885788,27.6209183,101.2767639,24.0039558,105.8802643,24.0039558L105.8802643,24.0039558z M68.7235794,31.2379284h0.3287659
			c20.3868942,0,37.4856491,17.0986538,37.4856491,37.4855499l0,0c0,20.7157135-17.0987549,37.4854584-37.4856491,37.4854584
			h-0.3287659c-20.3869019,0-37.1567879-16.7697449-37.1567879-37.4854584l0,0
			C31.5667915,48.3365822,48.3366776,31.2379284,68.7235794,31.2379284L68.7235794,31.2379284z M68.7235794,44.0619926h0.3287659
			c13.4816895,0,24.6614838,11.1799393,24.6614838,24.6614876l0,0c0,13.810463-11.1797943,24.9903564-24.6614838,24.9903564
			h-0.3287659c-13.4816971,0-24.6615868-11.1798935-24.6615868-24.9903564l0,0
			C44.0619926,55.2419319,55.2418823,44.0619926,68.7235794,44.0619926L68.7235794,44.0619926z M37.4855537,11.8375711h62.8047676
			c14.1392746,0,25.6480255,11.5086603,25.6480255,25.6479836v62.4759026c0,14.1392746-11.5087509,25.6480331-25.6480255,25.6480331
			H37.4855537c-14.1392269,0-25.6478882-11.5087585-25.6478882-25.6480331V37.4855537
			C11.8376665,23.3462315,23.3463268,11.8375711,37.4855537,11.8375711L37.4855537,11.8375711z"/>
	</g>
</g>
</svg>
