<?xml version="1.0" encoding="utf-8"?>
<!-- Generator: Adobe Illustrator 27.9.0, SVG Export Plug-In . SVG Version: 6.00 Build 0)  -->
<svg version="1.1" id="Layer_1" xmlns="http://www.w3.org/2000/svg" xmlns:xlink="http://www.w3.org/1999/xlink" x="0px" y="0px"
	 viewBox="0 0 620.65625 480.5039978" style="enable-background:new 0 0 620.65625 480.5039978;" xml:space="preserve">
<style type="text/css">
	.st0{fill:#EDB162;}
	.st1{fill:#1A1A1A;}
	.st2{fill:#232323;}
</style>
<g>
	<g>
		<g>
			<polygon class="st0" points="484.899292,133.2986908 546.2207031,75.5347977 489.5957336,75.5347977 428.2742615,133.2986908 			
				"/>
			<polygon class="st0" points="135.7564545,133.2986908 192.3814392,133.2986908 131.0600281,75.5347977 74.4350433,75.5347977 			
				"/>
			<polygon class="st1" points="135.7564545,133.2986908 74.4350433,133.2986908 310.3278809,355.5063782 546.2207031,133.2986908 
				484.899292,133.2986908 310.3278809,297.7424622 			"/>
		</g>
		<g>
			<path class="st1" d="M383.6800537,164.2019043l-23.0009155,21.6665802
				c2.9021606,3.3999176,7.216095,5.5582886,12.0366211,5.5582886c8.7387085,0,15.8228149-7.0840912,15.8228149-15.8227844
				C388.5385742,171.123291,386.6730957,167.080719,383.6800537,164.2019043z"/>
			<path class="st1" d="M237.1516266,164.2019043l23.0009308,21.6665802
				c-2.9021606,3.3999176-7.2161102,5.5582886-12.0366364,5.5582886c-8.738678,0-15.8228149-7.0840912-15.8228149-15.8227844
				C232.2931061,171.123291,234.1585999,167.080719,237.1516266,164.2019043z"/>
			<g>
				<polygon class="st1" points="74.4350433,0 240.5069733,156.4373627 263.5358276,178.1302643 296.7805176,115.3343277 
					135.7564545,0 				"/>
				<polygon class="st0" points="296.7805176,115.3343277 310.3278809,125.0377045 324.1138611,115.1634064 310.3278809,89.7447205 
									"/>
				<polygon class="st0" points="350.0317078,196.8417053 310.7927551,168.736557 270.8626709,197.3367615 310.7927551,270.9602051 
									"/>
				<polygon class="st1" points="484.899292,0 324.1138611,115.1634064 357.8773804,177.416748 380.8782959,155.7501678 
					546.2207031,0 				"/>
			</g>
		</g>
	</g>
	<g>
		<g>
			<g>
				<g>
					<path class="st2" d="M7.7890625,460.6582947v-62.4980469h68.0625v8.3447266H17.3398438v15.4863281h58.5117188v8.1591797
						H17.3398438v22.1621094h58.5117188v8.3457031H7.7890625z"/>
					<path class="st2" d="M172.7558594,460.6582947v-46.6416016L136.5,440.4434509h-1.0205078L99.59375,414.2012634v46.4570312
						h-9.5507812v-63.9824219h1.1123047l44.9736328,32.7333984l44.9726562-32.7333984h1.2050781v63.9824219H172.7558594z"/>
					<path class="st2" d="M250.7451172,439.2383728h-43.3037109v21.4199219h-9.5507812v-62.4980469h52.6689453
						c12.4257812,0,21.8837891,6.6757812,21.8837891,19.84375
						C272.4433594,431.2637634,262.9853516,439.2383728,250.7451172,439.2383728z M248.1494141,406.4122009h-40.7080078v24.5732422
						h41.5419922c7.8818359,0,13.5380859-5.3779297,13.5380859-12.796875
						C262.5214844,410.3995056,256.2167969,406.4122009,248.1494141,406.4122009z"/>
					<path class="st2" d="M284.1308594,460.6582947v-62.4980469h68.0625v8.3447266h-58.5117188v15.4863281h58.5117188v8.1591797
						h-58.5117188v22.1621094h58.5117188v8.3457031H284.1308594z"/>
					<path class="st2" d="M425.5449219,460.6582947l-25.1289062-26.5205078h-24.4804688v26.5205078h-9.5507812v-62.4980469
						h52.9472656c10.7568359,0,19.84375,5.8417969,19.84375,17.5253906c0,11.9619141-8.9013672,18.2675781-19.7509766,18.2675781
						h-6.9541016l25.9638672,26.7050781H425.5449219z M417.2919922,406.4122009h-41.3564453v19.84375h42.1914062
						c5.2851562,0,11.5908203-2.4101562,11.5908203-10.3847656
						C429.7177734,409.5655212,424.3398438,406.4122009,417.2919922,406.4122009z"/>
					<path class="st2" d="M488.9755859,462.32724c-21.5126953,0-41.8203125-9.5507812-41.8203125-32.9179688
						c0-23.2744141,20.2148438-32.9189453,41.8203125-32.9189453c21.5126953,0,41.7275391,9.6445312,41.7275391,32.9189453
						C530.703125,452.7764587,510.5810547,462.32724,488.9755859,462.32724z M488.9755859,404.3721619
						c-17.9892578,0-31.7128906,8.3457031-31.7128906,25.0371094c0,16.7832031,13.7236328,25.0361328,31.7128906,25.0361328
						c17.8964844,0,31.5273438-8.1601562,31.5273438-25.0361328
						C520.5029297,412.717865,506.8720703,404.3721619,488.9755859,404.3721619z"/>
					<path class="st2" d="M601.5498047,460.6582947l-25.1289062-26.5205078h-24.4804688v26.5205078h-9.5507812v-62.4980469
						h52.9472656c10.7568359,0,19.84375,5.8417969,19.84375,17.5253906c0,11.9619141-8.9013672,18.2675781-19.7509766,18.2675781
						h-6.9541016l25.9638672,26.7050781H601.5498047z M593.296875,406.4122009h-41.3564453v19.84375h42.1914062
						c5.2851562,0,11.5908203-2.4101562,11.5908203-10.3847656
						C605.7226562,409.5655212,600.3447266,406.4122009,593.296875,406.4122009z"/>
				</g>
			</g>
		</g>
	</g>
</g>
</svg>
