<?xml version="1.0" encoding="utf-8"?>
<!-- Generator: Adobe Illustrator 27.9.0, SVG Export Plug-In . SVG Version: 6.00 Build 0)  -->
<svg version="1.1" id="Layer_1" xmlns="http://www.w3.org/2000/svg" xmlns:xlink="http://www.w3.org/1999/xlink" x="0px" y="0px"
	 viewBox="0 0 1880.0449219 1416.6772461" style="enable-background:new 0 0 1880.0449219 1416.6772461;" xml:space="preserve">
<style type="text/css">
	.st0{opacity:0.05;}
	.st1{fill:#EDB162;}
	.st2{fill:#FCFCFC;}
</style>
<g id="Download_Logo_Gradient_00000005252533060803419830000017411308137205469832_" class="st0">
	<g>
		<polygon class="st1" points="1635.6818848,531.1893921 1880.0449219,301.0028381 1654.3968506,301.0028381 
			1410.0336914,531.1893921 		"/>
		<polygon class="st1" points="244.3630829,531.1893921 470.0111694,531.1893921 225.6480713,301.0028381 0,301.0028381 		"/>
		<polygon class="st2" points="244.3630829,531.1893921 0,531.1893921 940.0224609,1416.6772461 1880.0449219,531.1893921 
			1635.6818848,531.1893921 940.0224609,1186.4906006 		"/>
	</g>
	<g>
		<path class="st2" d="M1232.3276367,654.3373413l-91.6575928,86.340332
			c11.5649414,13.5485229,28.7558594,22.1495361,47.9654541,22.1495361c34.8232422,0,63.0532227-28.2297974,63.0532227-63.0531006
			C1251.6887207,681.9187012,1244.2547607,665.8092651,1232.3276367,654.3373413z"/>
		<path class="st2" d="M648.418396,654.3373413l91.6576538,86.340332
			c-11.5649414,13.5485229-28.7558594,22.1495361-47.9654541,22.1495361c-34.8232422,0-63.0532227-28.2297974-63.0532227-63.0531006
			C629.057373,681.9187012,636.491333,665.8092651,648.418396,654.3373413z"/>
		<g>
			<polygon class="st2" points="0,0 661.7892456,623.3959961 753.5582275,709.8411865 886.0369263,459.6021729 244.3630829,0 			"/>
			<polygon class="st1" points="886.0369263,459.6021729 940.0224609,498.2697144 994.9589844,458.9210815 940.0224609,357.6287537 
							"/>
			<polygon class="st1" points="1098.2404785,784.4055176 941.875061,672.4077148 782.7553711,786.3782959 941.875061,1079.7644043 
							"/>
			<polygon class="st2" points="1635.6818848,0 994.9589844,458.9210815 1129.505127,706.9978638 1221.1627197,620.6575317 
				1880.0449219,0 			"/>
		</g>
	</g>
</g>
</svg>
