<?xml version="1.0" encoding="utf-8"?>
<!-- Generator: Adobe Illustrator 27.7.0, SVG Export Plug-In . SVG Version: 6.00 Build 0)  -->
<svg version="1.1" xmlns="http://www.w3.org/2000/svg" xmlns:xlink="http://www.w3.org/1999/xlink" x="0px" y="0px"
	 viewBox="0 0 120 120" style="enable-background:new 0 0 120 120;" xml:space="preserve">
<style type="text/css">
	.st0{display:none;}
	.st1{display:inline;fill:#212121;}
	.st2{fill:#EDB162;}
	.st3{fill:#FFFFFF;}
</style>
<g id="Layer_2" class="st0">
	<rect class="st1" width="120" height="120"/>
</g>
<g id="Layer_1">
	<g>
		<g>
			<g>
				<polygon class="st2" points="103.7038956,36.8956604 118.9712601,22.5140266 104.8731766,22.5140266 89.6058121,36.8956604 				
					"/>
				<polygon class="st2" points="16.7768497,36.8956604 30.8749275,36.8956604 15.6075706,22.5140266 1.5094926,22.5140266 				"/>
				<polygon class="st3" points="16.7768497,36.8956604 1.5094926,36.8956604 60.2403755,92.2193146 118.9712601,36.8956604 
					103.7038956,36.8956604 60.2403755,77.837677 				"/>
			</g>
			<g>
				<path class="st3" d="M78.503067,44.5897217l-5.7266006,5.3943863
					C76.2056808,54.1017456,82.4104385,48.2613411,78.503067,44.5897217z"/>
				<path class="st3" d="M42.0214844,44.5897217l5.7266045,5.3943863
					C44.3188705,54.1017456,38.1141167,48.2613411,42.0214844,44.5897217z"/>
				<g>
					<path class="st3" d="M1.5094926,3.7079227c3.4241493,3.2255003,45.2221298,42.5985909,47.0809402,44.349575
						l8.2770233-15.6344757L16.7768497,3.7079227H1.5094926z"/>
					<polygon class="st2" points="56.8674545,32.4230232 60.2403755,34.8389015 63.6727066,32.3804703 60.2403755,26.0519104 					
						"/>
					<polygon class="st2" points="70.1255417,52.7161407 60.3561211,45.7187233 50.4146156,52.8393974 60.3561211,71.1696243 					
						"/>
					<path class="st3" d="M103.7038956,3.7079227l-40.031189,28.6725483l8.4061966,15.499382
						c1.7285919-1.6283264,43.635704-41.1042099,46.8923569-44.1719284H103.7038956z"/>
				</g>
			</g>
		</g>
		<g>
			<g>
				<g>
					<g>
						<path class="st3" d="M1.0287436,116.0082169v-10.6456985H13.729229v2.2580643H3.9992104v1.5951157h9.7300186v2.1646729
							H3.9992104v2.3697739h9.7300186v2.2580719H1.0287436z"/>
						<path class="st3" d="M30.7599659,116.0082169v-5.9226227l-5.1809177,3.3312454h-0.3635254l-5.149786-3.2854614v5.8768387
							h-2.9686356v-10.8672943h0.3790913l7.928875,5.1021729l7.9609261-5.1021729h0.3635254v10.8672943H30.7599659z"/>
						<path class="st3" d="M46.9345436,112.9278641h-6.7293358v3.0803528h-2.9686356v-10.6456985h9.6824036
							c2.368866,0,4.1535263,1.2160263,4.1535263,3.6956863C51.0725021,111.5067291,49.2878418,112.9278641,46.9345436,112.9278641z
							 M46.1131783,107.5894547h-5.9079704v3.0949936h6.0187683c1.0264778,0,1.7846603-0.6153336,1.7846603-1.5951157
							C48.0086365,108.0949097,47.1872711,107.5894547,46.1131783,107.5894547z"/>
						<path class="st3" d="M54.0466309,116.0082169v-10.6456985H66.745285v2.2580643h-9.7300186v1.5951157h9.7300186v2.1646729
							h-9.7300186v2.3697739h9.7300186v2.2580719H54.0466309z"/>
						<path class="st3" d="M79.9548874,116.0082169l-3.6499023-3.9648972h-3.2213593v3.9648972h-2.9704666v-10.6456985h9.7776337
							c2.0382996,0,3.7762604,1.0585251,3.7762604,3.2689743c0,2.0053406-1.4852295,3.1591034-3.3660355,3.2543335h-0.472496
							l4.0912628,4.1223907H79.9548874z M79.1967087,107.6041031h-6.1130829v2.3221664h6.2229614
							c0.8369293,0,1.4522705-0.3626099,1.4522705-1.1995392C80.7588577,107.9996796,80.1288681,107.6041031,79.1967087,107.6041031
							z"/>
						<path class="st3" d="M93.919014,116.2920761c-3.822052,0-7.7393265-1.5475006-7.7393265-5.6076279
							c0-4.0436401,3.902626-5.6076202,7.7393265-5.6076202c3.8238831,0,7.7411575,1.5639801,7.7411575,5.6076202
							C101.6601715,114.7445755,97.7905121,116.2920761,93.919014,116.2920761z M93.919014,107.2726288
							c-2.811142,0-4.6113663,1.2489853-4.6113663,3.4118195c0,2.1646729,1.8002243,3.4118271,4.6113663,3.4118271
							c2.7800064,0,4.5820618-1.2306747,4.5820618-3.4118271C98.5010757,108.5216141,96.6990204,107.2726288,93.919014,107.2726288z
							"/>
						<path class="st3" d="M114.472374,116.0082169l-3.6499023-3.9648972h-3.2213669v3.9648972h-2.9704666v-10.6456985h9.7776337
							c2.0383072,0,3.776268,1.0585251,3.776268,3.2689743c0,2.0053406-1.4852295,3.1591034-3.3660431,3.2543335h-0.4724884
							l4.0912628,4.1223907H114.472374z M113.7141876,107.6041031h-6.1130829v2.3221664h6.2229691
							c0.8369293,0,1.4522629-0.3626099,1.4522629-1.1995392
							C115.2763367,107.9996796,114.6463547,107.6041031,113.7141876,107.6041031z"/>
					</g>
				</g>
			</g>
		</g>
	</g>
</g>
</svg>
