<?xml version="1.0" encoding="utf-8"?>
<!-- Generator: Adobe Illustrator 27.7.0, SVG Export Plug-In . SVG Version: 6.00 Build 0)  -->
<svg version="1.1" id="Layer_1" xmlns="http://www.w3.org/2000/svg" xmlns:xlink="http://www.w3.org/1999/xlink" x="0px" y="0px"
	 viewBox="0 0 133.5976715 108.5107422" style="enable-background:new 0 0 133.5976715 108.5107422;" xml:space="preserve">
<style type="text/css">
	.twitter-icon{fill-rule:evenodd;clip-rule:evenodd;fill:#edb162;}
</style>
<g id="Twitter_00000183212447723442488320000005628593073670667924_">
	<g id="XMLID_00000017475586027347130670000002576021992876139424_">
		<path id="XMLID_00000183969278021209216890000009353151277331987859_" class="twitter-icon" d="M65.912941,33.3727036
			C60.5974426,5.3773885,94.2625961-11.2779684,114.1073532,8.9211798c0,0,8.8591919-2.4806252,16.6554489-7.4418268
			c0,0-2.8349609,9.5680628-12.4030228,15.5922871c0,0,10.6311264-1.4173632,15.2378922-4.2524242
			c0,0-4.6067657,9.5680618-13.1116562,13.1117573C125.0928802,90.0719681,55.9905815,129.0527649,0,97.1594086
			c0,0,27.6409264,1.4175568,39.3351784-12.0485916c0,0-17.0098896,1.4174576-25.5146904-19.1360321
			c0,0,6.3787088,2.480629,12.7572737-0.7087326c0,0-19.8446636-3.1893997-21.6165581-26.9320488
			c0,0,6.3787088,4.9610558,13.4660997,3.1892586c0,0-21.9709969-13.1117592-9.5680637-36.8545074
			C8.8592377,4.6687551,32.2477875,34.4358711,65.912941,33.3727036L65.912941,33.3727036z"/>
	</g>
</g>
</svg>
